<svg width="701" height="208" viewBox="0 0 701 208" fill="none" xmlns="http://www.w3.org/2000/svg">
<path d="M451.321 173.148L509.192 191.423L557.925 142.69L618.841 185.332L682.803 173.148L655.391 84.82L557.925 115.278L503.1 84.82L445.23 93.9574L451.321 173.148Z" fill="#F1A501"/>
<path d="M0.0541992 143.08V129.91L37.3227 123.185V141.399C37.5095 151.3 40.0315 158.772 44.8885 163.816C49.9324 168.673 56.5641 171.102 64.7838 171.102C72.8166 171.102 79.1681 168.486 83.8384 163.256C88.6954 158.025 91.1239 151.02 91.1239 142.24V4.93446H129.794V142.24C129.794 160.547 123.722 176.052 111.58 188.755C99.437 201.458 83.9318 207.81 65.064 207.81C45.449 207.81 29.6635 201.925 17.7077 190.156C5.93871 178.2 0.0541992 162.508 0.0541992 143.08Z" fill="black"/>
<path d="M138.679 166.058C138.679 154.289 142.509 144.855 150.168 137.756C157.827 130.657 167.728 126.174 179.871 124.306L213.777 119.262C220.689 118.328 224.145 115.059 224.145 109.454C224.145 104.224 222.09 99.9272 217.98 96.5646C214.057 93.2021 208.359 91.5208 200.887 91.5208C193.041 91.5208 186.783 93.6691 182.113 97.9657C177.629 102.262 175.107 107.586 174.547 113.938L141.482 106.933C142.789 94.9767 148.674 84.422 159.135 75.2683C169.596 66.1146 183.42 61.5378 200.607 61.5378C221.156 61.5378 236.287 66.4883 246.002 76.3892C255.716 86.1033 260.573 98.6195 260.573 113.938V181.75C260.573 189.969 261.133 197.255 262.254 203.607H228.068C227.134 199.497 226.667 193.986 226.667 187.074C217.887 200.711 204.343 207.53 186.036 207.53C171.838 207.53 160.349 203.42 151.569 195.2C142.976 186.981 138.679 177.266 138.679 166.058ZM193.882 179.788C202.662 179.788 209.854 177.36 215.458 172.503C221.249 167.459 224.145 159.239 224.145 147.844V141.679L193.041 146.443C181.646 148.124 175.948 153.915 175.948 163.816C175.948 168.3 177.536 172.129 180.712 175.305C183.887 178.294 188.277 179.788 193.882 179.788Z" fill="black"/>
<path d="M406.595 0.731247V178.668C406.595 187.821 406.969 196.134 407.716 203.607H372.129C371.195 198.936 370.728 193.612 370.728 187.634C367.552 193.425 362.508 198.096 355.596 201.645C348.871 205.194 341.025 206.969 332.058 206.969C312.443 206.969 296.284 200.151 283.581 186.514C271.065 172.69 264.807 155.316 264.807 134.394C264.807 114.031 270.971 96.9383 283.301 83.1143C295.817 69.2904 311.696 62.3785 330.937 62.3785C350.739 62.3785 363.722 68.0762 369.887 79.4715V0.731247H406.595ZM302.355 134.394C302.355 146.536 305.531 156.157 311.883 163.256C318.234 170.168 326.454 173.624 336.542 173.624C346.442 173.624 354.569 170.074 360.92 162.975C367.272 155.877 370.447 146.256 370.447 134.113C370.447 122.158 367.272 112.817 360.92 106.092C354.569 99.18 346.442 95.724 336.542 95.724C326.641 95.724 318.421 99.18 311.883 106.092C305.531 113.004 302.355 122.438 302.355 134.394Z" fill="black"/>
<path d="M461.596 163.536C468.508 170.448 476.821 173.904 486.535 173.904C496.249 173.904 504.469 170.448 511.194 163.536C518.106 156.624 521.562 147.003 521.562 134.674C521.562 122.344 518.106 112.724 511.194 105.812C504.469 98.8998 496.249 95.4438 486.535 95.4438C476.821 95.4438 468.508 98.8998 461.596 105.812C454.871 112.724 451.508 122.344 451.508 134.674C451.508 147.003 454.871 156.624 461.596 163.536ZM434.695 82.2737C448.519 68.4498 465.799 61.5378 486.535 61.5378C507.271 61.5378 524.457 68.4498 538.095 82.2737C551.918 96.0976 558.83 113.564 558.83 134.674C558.83 155.783 551.918 173.25 538.095 187.074C524.457 200.898 507.271 207.81 486.535 207.81C465.799 207.81 448.519 200.898 434.695 187.074C421.058 173.25 414.24 155.783 414.24 134.674C414.24 113.564 421.058 96.0976 434.695 82.2737Z" fill="black"/>
<path d="M602.82 163.536C609.732 170.448 618.045 173.904 627.759 173.904C637.473 173.904 645.693 170.448 652.418 163.536C659.33 156.624 662.786 147.003 662.786 134.674C662.786 122.344 659.33 112.724 652.418 105.812C645.693 98.8998 637.473 95.4438 627.759 95.4438C618.045 95.4438 609.732 98.8998 602.82 105.812C596.095 112.724 592.732 122.344 592.732 134.674C592.732 147.003 596.095 156.624 602.82 163.536ZM575.919 82.2737C589.743 68.4498 607.023 61.5378 627.759 61.5378C648.495 61.5378 665.681 68.4498 679.318 82.2737C693.142 96.0976 700.054 113.564 700.054 134.674C700.054 155.783 693.142 173.25 679.318 187.074C665.681 200.898 648.495 207.81 627.759 207.81C607.023 207.81 589.743 200.898 575.919 187.074C562.282 173.25 555.463 155.783 555.463 134.674C555.463 113.564 562.282 96.0976 575.919 82.2737Z" fill="black"/>
</svg>
